<svg width="24" height="24" viewBox="0 0 24 24" fill="none" xmlns="http://www.w3.org/2000/svg">
<path fill-rule="evenodd" clip-rule="evenodd" d="M20 2C20 1.44772 19.5523 1 19 1H7C5.34315 1 4 2.34315 4 4V20C4 21.6569 5.34315 23 7 23H19C19.5523 23 20 22.5523 20 22V2ZM18 3V21H7C6.44772 21 6 20.5523 6 20V4C6 3.44772 6.44771 3 7 3H18Z" fill="#2EC4B6"/>
<path fill-rule="evenodd" clip-rule="evenodd" d="M20 18C20 17.4477 19.5523 17 19 17H7C5.34315 17 4 18.3431 4 20C4 21.6569 5.34315 23 7 23H19C19.5523 23 20 22.5523 20 22V18ZM18 19V21H7C6.44771 21 6 20.5523 6 20C6 19.4477 6.44771 19 7 19H18Z" fill="#2EC4B6"/>
<path fill-rule="evenodd" clip-rule="evenodd" d="M17 5C17 4.44772 16.5523 4 16 4H8C7.44771 4 7 4.44772 7 5V9C7 9.55228 7.44771 10 8 10H16C16.5523 10 17 9.55228 17 9V5ZM15 6V8H9V6H15Z" fill="#2EC4B6"/>
</svg>
