<svg width="17" height="17" viewBox="0 0 17 17" fill="none" xmlns="http://www.w3.org/2000/svg">
<path fill-rule="evenodd" clip-rule="evenodd" d="M7.32409 3.83333C7.07157 3.83333 6.84073 3.976 6.7278 4.20186L6.46485 4.72776C6.12607 5.40533 5.43354 5.83333 4.676 5.83333H3.83337C3.46518 5.83333 3.16671 6.13181 3.16671 6.5V12.5C3.16671 12.8682 3.46518 13.1667 3.83337 13.1667H13.1667C13.5349 13.1667 13.8334 12.8682 13.8334 12.5V6.5C13.8334 6.13181 13.5349 5.83333 13.1667 5.83333H12.3241C11.5665 5.83333 10.874 5.40533 10.5352 4.72776L10.2723 4.20186C10.1594 3.976 9.92851 3.83333 9.676 3.83333H7.32409ZM5.53523 3.60557C5.87402 2.928 6.56654 2.5 7.32409 2.5H9.676C10.4335 2.5 11.1261 2.928 11.4649 3.60557L11.7278 4.13148C11.8407 4.35733 12.0716 4.5 12.3241 4.5H13.1667C14.2713 4.5 15.1667 5.39543 15.1667 6.5V12.5C15.1667 13.6046 14.2713 14.5 13.1667 14.5H3.83337C2.7288 14.5 1.83337 13.6046 1.83337 12.5V6.5C1.83337 5.39543 2.7288 4.5 3.83337 4.5H4.676C4.92851 4.5 5.15935 4.35733 5.27228 4.13148L5.53523 3.60557Z" fill="#2EC4B6"/>
<path fill-rule="evenodd" clip-rule="evenodd" d="M8.50008 7.16666C7.39551 7.16666 6.50008 8.06209 6.50008 9.16666C6.50008 10.2712 7.39551 11.1667 8.50008 11.1667C9.60465 11.1667 10.5001 10.2712 10.5001 9.16666C10.5001 8.06209 9.60465 7.16666 8.50008 7.16666ZM5.16675 9.16666C5.16675 7.32571 6.65913 5.83333 8.50008 5.83333C10.341 5.83333 11.8334 7.32571 11.8334 9.16666C11.8334 11.0076 10.341 12.5 8.50008 12.5C6.65913 12.5 5.16675 11.0076 5.16675 9.16666Z" fill="#2EC4B6"/>
</svg>
