<svg width="24" height="24" viewBox="0 0 24 24" fill="none" xmlns="http://www.w3.org/2000/svg">
<path fill-rule="evenodd" clip-rule="evenodd" d="M1.21997 10.3743C1.40976 10.1377 1.69669 10 2.00001 10H22C22.3033 10 22.5903 10.1377 22.7801 10.3743C22.9698 10.6109 23.042 10.9208 22.9762 11.2169L20.754 21.2169C20.6523 21.6745 20.2465 22 19.7778 22H4.22223C3.75353 22 3.34772 21.6745 3.24604 21.2169L1.02382 11.2169C0.958023 10.9208 1.03017 10.6109 1.21997 10.3743ZM3.24662 12L5.0244 20H18.9756L20.7534 12H3.24662Z" fill="#2EC4B6"/>
<path fill-rule="evenodd" clip-rule="evenodd" d="M12 3C12.2919 3 12.5693 3.12756 12.7592 3.34921L18.7592 10.3492L17.2407 11.6508L12 5.53659L6.75924 11.6508L5.24072 10.3492L11.2407 3.34921C11.4307 3.12756 11.7081 3 12 3Z" fill="#2EC4B6"/>
</svg>
