<svg width="22" height="22" viewBox="0 0 22 22" fill="none" xmlns="http://www.w3.org/2000/svg">
<path fill-rule="evenodd" clip-rule="evenodd" d="M11 2C6.02944 2 2 6.02944 2 11C2 15.9706 6.02944 20 11 20C15.9706 20 20 15.9706 20 11C20 6.02944 15.9706 2 11 2ZM0 11C0 4.92487 4.92487 0 11 0C17.0751 0 22 4.92487 22 11C22 17.0751 17.0751 22 11 22C4.92487 22 0 17.0751 0 11Z" fill="#2EC4B6"/>
<path fill-rule="evenodd" clip-rule="evenodd" d="M17.7072 7.70712L9.70718 15.7071C9.31666 16.0976 8.68349 16.0976 8.29297 15.7071L4.79297 12.2071L6.20718 10.7929L9.00008 13.5858L16.293 6.29291L17.7072 7.70712Z" fill="#2EC4B6"/>
</svg>
