<svg width="24" height="24" viewBox="0 0 24 24" fill="none" xmlns="http://www.w3.org/2000/svg">
<path fill-rule="evenodd" clip-rule="evenodd" d="M13.5 12C13.5 11.5807 13.3293 11.2031 13.051 10.9298L14.4525 9.50296C15.0979 10.1369 15.5 11.0224 15.5 12C15.5 13.933 13.933 15.5 12 15.5C11.0564 15.5 10.1982 15.1252 9.56962 14.5186L10.9585 13.0795C11.2293 13.3408 11.595 13.5 12 13.5C12.8284 13.5 13.5 12.8284 13.5 12Z" fill="#CED4D3"/>
<path fill-rule="evenodd" clip-rule="evenodd" d="M4.29289 18.2929L18.2929 4.29289L19.7071 5.70711L5.70711 19.7071L4.29289 18.2929Z" fill="#CED4D3"/>
<path fill-rule="evenodd" clip-rule="evenodd" d="M13.2961 7.05245C12.9427 7.00197 12.5185 7 12 7C11.2746 7 10.4023 7.28817 9.44389 7.81417C8.49903 8.33271 7.55171 9.03705 6.69747 9.76231C5.84659 10.4847 5.1088 11.2101 4.58288 11.7562C4.53007 11.811 4.47945 11.864 4.43113 11.9149L6.65375 13.8351L5.34625 15.3485L2.35495 12.7642L2.35211 12.7618L2.35132 12.7611L2.34958 12.7596L2.34872 12.7589L2.34791 12.7581L2.34713 12.7575L2.34636 12.7568C1.92985 12.397 1.88233 11.7681 2.24019 11.3499L3 12C2.24019 11.3499 2.24003 11.35 2.24019 11.3499L2.2409 11.349L2.24208 11.3477L2.24584 11.3433L2.25893 11.3281L2.30683 11.2732C2.34821 11.226 2.40829 11.1581 2.48548 11.0725C2.63981 10.9014 2.86295 10.6589 3.14231 10.3688C3.69983 9.78992 4.48717 9.01529 5.40304 8.2377C6.31555 7.46296 7.37661 6.6673 8.48168 6.06084C9.57317 5.46184 10.7924 5 12 5L12.0362 5C12.5102 4.99995 13.0703 4.9999 13.5789 5.07256C14.0875 5.14521 14.7264 5.31217 15.2071 5.7929L13.7929 7.20711C13.7736 7.18784 13.6625 7.1048 13.2961 7.05245ZM18.8267 11.1136C17.9524 10.2317 16.7779 9.15966 15.5318 8.33344L16.6371 6.66657C18.0435 7.59915 19.3267 8.77715 20.2471 9.70552C20.7103 10.1728 21.0882 10.5836 21.3514 10.8788C21.4831 11.0265 21.5863 11.1456 21.6575 11.2287C21.693 11.2703 21.7206 11.3029 21.7397 11.3257L21.7619 11.3523L21.7682 11.3598L21.771 11.3631C21.7711 11.3633 21.7712 11.3634 21 12C21.7598 12.6501 21.7597 12.6503 21.7595 12.6505L21.7542 12.6567L21.7411 12.6719L21.6932 12.7268C21.6518 12.774 21.5917 12.8419 21.5145 12.9275C21.3602 13.0986 21.1371 13.3411 20.8577 13.6312C20.3002 14.2101 19.5128 14.9847 18.597 15.7623C17.6845 16.537 16.6234 17.3327 15.5183 17.9392C14.4268 18.5382 13.2076 19 12 19C11.0913 19 10.2055 18.6779 9.41634 18.2726C8.61916 17.8632 7.83847 17.3251 7.13016 16.8073L8.31047 15.1927C8.99939 15.6963 9.6773 16.1583 10.33 16.4935C10.9908 16.8328 11.5462 17 12 17C12.7254 17 13.5977 16.7118 14.5561 16.1858C15.501 15.6673 16.4483 14.963 17.3025 14.2377C18.1534 13.5153 18.8912 12.7899 19.4171 12.2438C19.504 12.1536 19.585 12.0684 19.6596 11.9891C19.4362 11.7441 19.1544 11.4441 18.8267 11.1136ZM21 12L21.7595 12.6505C22.0754 12.2813 22.0803 11.7379 21.771 11.3631L21 12Z" fill="#CED4D3"/>
</svg>
