<svg width="24" height="24" viewBox="0 0 24 24" fill="none" xmlns="http://www.w3.org/2000/svg">
<path fill-rule="evenodd" clip-rule="evenodd" d="M3 10C3 8.34315 4.34315 7 6 7H18C19.6569 7 21 8.34315 21 10V20C21 21.6569 19.6569 23 18 23H6C4.34315 23 3 21.6569 3 20V10ZM6 9C5.44772 9 5 9.44772 5 10V20C5 20.5523 5.44772 21 6 21H18C18.5523 21 19 20.5523 19 20V10C19 9.44772 18.5523 9 18 9H6Z" fill="#CED4D3"/>
<path fill-rule="evenodd" clip-rule="evenodd" d="M8.66388 3C8.1116 3 7.66388 3.44772 7.66388 4V8.37815H5.66388V4C5.66388 2.34315 7.00702 1 8.66388 1H15.1009C16.7577 1 18.1009 2.34315 18.1009 4V8.37815H16.1009V4C16.1009 3.44771 15.6531 3 15.1009 3H8.66388Z" fill="#CED4D3"/>
<path fill-rule="evenodd" clip-rule="evenodd" d="M12 13.5C11.7239 13.5 11.5 13.7239 11.5 14C11.5 14.2761 11.7239 14.5 12 14.5C12.2761 14.5 12.5 14.2761 12.5 14C12.5 13.7239 12.2761 13.5 12 13.5ZM9.5 14C9.5 12.6193 10.6193 11.5 12 11.5C13.3807 11.5 14.5 12.6193 14.5 14C14.5 15.3807 13.3807 16.5 12 16.5C10.6193 16.5 9.5 15.3807 9.5 14Z" fill="#CED4D3"/>
<path fill-rule="evenodd" clip-rule="evenodd" d="M11 18.5V15H13V18.5H11Z" fill="#CED4D3"/>
</svg>
