<svg width="22" height="16" viewBox="0 0 22 16" fill="none" xmlns="http://www.w3.org/2000/svg">
<path fill-rule="evenodd" clip-rule="evenodd" d="M3 1C3 0.447715 3.44772 0 4 0H18C18.5523 0 19 0.447715 19 1C19 2.10457 19.8954 3 21 3C21.5523 3 22 3.44772 22 4V12C22 12.5523 21.5523 13 21 13C19.8954 13 19 13.8954 19 15C19 15.5523 18.5523 16 18 16H4C3.44772 16 3 15.5523 3 15C3 13.8954 2.10457 13 1 13C0.447715 13 0 12.5523 0 12V4C0 3.44772 0.447715 3 1 3C2.10457 3 3 2.10457 3 1ZM4.87398 2C4.5122 3.40561 3.40561 4.5122 2 4.87398V11.126C3.40561 11.4878 4.5122 12.5944 4.87398 14H17.126C17.4878 12.5944 18.5944 11.4878 20 11.126V4.87398C18.5944 4.5122 17.4878 3.40561 17.126 2H4.87398Z" fill="#2EC4B6"/>
<path fill-rule="evenodd" clip-rule="evenodd" d="M9 4.5C8.72386 4.5 8.5 4.72386 8.5 5C8.5 5.27614 8.72386 5.5 9 5.5C9.27614 5.5 9.5 5.27614 9.5 5C9.5 4.72386 9.27614 4.5 9 4.5ZM6.5 5C6.5 3.61929 7.61929 2.5 9 2.5C10.3807 2.5 11.5 3.61929 11.5 5C11.5 6.38071 10.3807 7.5 9 7.5C7.61929 7.5 6.5 6.38071 6.5 5Z" fill="#2EC4B6"/>
<path fill-rule="evenodd" clip-rule="evenodd" d="M13.5 10C13.2239 10 13 10.2239 13 10.5C13 10.7761 13.2239 11 13.5 11C13.7761 11 14 10.7761 14 10.5C14 10.2239 13.7761 10 13.5 10ZM11 10.5C11 9.11929 12.1193 8 13.5 8C14.8807 8 16 9.11929 16 10.5C16 11.8807 14.8807 13 13.5 13C12.1193 13 11 11.8807 11 10.5Z" fill="#2EC4B6"/>
<path fill-rule="evenodd" clip-rule="evenodd" d="M6.79291 10.7929L13.7929 3.79289L15.2071 5.20711L8.20712 12.2071L6.79291 10.7929Z" fill="#2EC4B6"/>
</svg>
