<svg width="25" height="24" viewBox="0 0 25 24" fill="none" xmlns="http://www.w3.org/2000/svg">
<path fill-rule="evenodd" clip-rule="evenodd" d="M12.5 3C7.52944 3 3.5 7.02944 3.5 12C3.5 16.9706 7.52944 21 12.5 21C17.4706 21 21.5 16.9706 21.5 12C21.5 7.02944 17.4706 3 12.5 3ZM1.5 12C1.5 5.92487 6.42487 1 12.5 1C18.5751 1 23.5 5.92487 23.5 12C23.5 18.0751 18.5751 23 12.5 23C6.42487 23 1.5 18.0751 1.5 12Z" fill="#697B7A"/>
<path fill-rule="evenodd" clip-rule="evenodd" d="M8.1833 6.37623C8.48868 6.19654 8.86634 6.19187 9.17607 6.36394L17.7475 11.1258C18.065 11.3022 18.2619 11.6368 18.2619 12C18.2619 12.3632 18.065 12.6978 17.7475 12.8742L9.17607 17.6361C8.86634 17.8081 8.48868 17.8035 8.1833 17.6238C7.87792 17.4441 7.69043 17.1162 7.69043 16.7619V7.2381C7.69043 6.88378 7.87792 6.55591 8.1833 6.37623ZM9.69043 8.93761V15.0624L15.2027 12L9.69043 8.93761Z" fill="#697B7A"/>
</svg>
